<svg xmlns="http://www.w3.org/2000/svg" width="15" height="12.009" viewBox="0 0 15 12.009"><path fill-rule="evenodd" clip-rule="evenodd" fill="#1DB2A0" d="M14.019.194c-.681-.361-1.438-.211-2.04.406-.131.134-.258.272-.386.409a7939.57 7939.57 0 0 1-5.595 6.002c-.365.391-.525.391-.89.002-.719-.764-1.421-1.543-2.152-2.296-.833-.858-2.15-.669-2.719.374-.094.172-.159.361-.237.541v.825c.156.321.27.661.525.932 1.258 1.337 2.503 2.688 3.764 4.021.766.812 1.798.792 2.561-.026 2.53-2.713 5.057-5.429 7.588-8.14.273-.292.445-.629.525-1.017.164-.789-.24-1.659-.944-2.033z"/></svg>