<svg xmlns="http://www.w3.org/2000/svg" width="512" height="512" viewBox="0 0 512 512"><g fill="#933EC5"><path d="M510.807 249.601a18.355 18.355 0 0 0-.567-1.313c-22.704-47.155-58.04-87.043-102.182-115.352-45.355-29.088-97.936-44.461-152.054-44.461-54.117 0-106.7 15.375-152.056 44.466-43.98 28.204-79.217 67.908-101.931 114.836a17.747 17.747 0 0 0-.26 15.913c22.702 47.162 58.038 87.057 102.184 115.371 45.357 29.092 97.94 44.468 152.063 44.468 54.121 0 106.703-15.376 152.059-44.466 44.146-28.312 79.479-68.204 102.184-115.361a17.795 17.795 0 0 0 .56-14.101zM256.004 388.038c-91.279 0-176.063-51.548-218.393-132.041 42.329-80.492 127.113-132.039 218.393-132.039 91.278 0 176.064 51.552 218.394 132.041-42.332 80.485-127.118 132.039-218.394 132.039z"/><path d="M256.002 178.125c-42.939 0-77.875 34.936-77.875 77.875s34.936 77.875 77.875 77.875 77.875-34.936 77.875-77.875-34.935-77.875-77.875-77.875zm0 120.264c-23.372 0-42.389-19.017-42.389-42.389s19.017-42.388 42.389-42.388 42.389 19.016 42.389 42.388-19.017 42.389-42.389 42.389z"/></g></svg>