<svg xmlns="http://www.w3.org/2000/svg" width="27.382" height="24" viewBox="0 0 27.382 24"><path d="M17.921 2.001a1.003 1.003 0 0 0 1-1 1.01 1.01 0 0 0-.293-.708C18.441.107 18.184 0 17.921 0s-.521.107-.707.293a1.01 1.01 0 0 0-.293.708 1.003 1.003 0 0 0 1 1zm5.592 6.77c.263 0 .521-.107.707-.293a1.002 1.002 0 0 0-1.414-1.414 1 1 0 0 0 .707 1.707zm-21.998 0c.265 0 .521-.107.708-.293a1.005 1.005 0 0 0 0-1.414 1.003 1.003 0 0 0-1.415 0 1.002 1.002 0 0 0 0 1.414c.186.185.444.293.707.293zM13.359 22a1.003 1.003 0 0 0-.707 1.708 1.004 1.004 0 0 0 1.414 0 1.003 1.003 0 0 0 0-1.415 1.006 1.006 0 0 0-.707-.293zm8.549-16.816a1.001 1.001 0 0 0-1.203-1.598c-.076.057-1.872 1.422-3.437 4.104-1.434 2.458-2.949 6.552-2.026 12.091a1 1 0 0 0 1.972-.329c-.656-3.939-.072-7.532 1.736-10.677 1.361-2.363 2.943-3.58 2.958-3.591zM6.404 3.585a.999.999 0 0 0-1.202 1.598c.016.012 1.598 1.229 2.957 3.591 1.808 3.145 2.393 6.737 1.736 10.678a.999.999 0 1 0 1.973.328c.923-5.539-.592-9.633-2.026-12.091C8.277 5.007 6.48 3.642 6.404 3.585zm6.442 3.493a1 1 0 0 0 .987-.85c.618-4.058-3.245-6.04-3.41-6.122a1 1 0 0 0-.895 1.79c.027.014 2.729 1.396 2.327 4.031a1 1 0 0 0 .991 1.151zm14.484 3.76a1 1 0 0 0-1.266-.632c-.059.02-1.463.496-2.861 1.661-1.896 1.58-2.898 3.675-2.898 6.057a1 1 0 1 0 2.001 0c0-4.272 4.212-5.759 4.396-5.821a1 1 0 0 0 .628-1.265zM1 10.154a1 1 0 0 0 0 2c1.696 0 2.847.633 3.52 1.933a5.348 5.348 0 0 1 .556 2.148 1 1 0 0 0 2-.004c0-.062-.008-1.522-.74-2.985-.705-1.41-2.203-3.092-5.336-3.092z" fill="#933EC5"/></svg>