<svg xmlns="http://www.w3.org/2000/svg" width="26" height="24.988" viewBox="0 0 26 24.988"><path fill="#933EC5" d="M18.447 0A7.52 7.52 0 0 0 13 2.325 7.522 7.522 0 0 0 7.553 0C3.388 0 0 3.388 0 7.553c0 3.175 1.86 6.811 5.529 10.807 2.779 3.029 5.812 5.382 6.675 6.03l.796.598.796-.598c.865-.651 3.904-3.011 6.675-6.03C24.14 14.363 26 10.728 26 7.553 26 3.388 22.612 0 18.447 0zM7.553 2.648a4.91 4.91 0 0 1 4.289 2.532L13 7.27l1.158-2.089a4.908 4.908 0 0 1 4.289-2.533 4.91 4.91 0 0 1 4.904 4.905c0 2.455-1.671 5.573-4.831 9.017-2.052 2.234-4.235 4.07-5.521 5.088-1.286-1.018-3.47-2.854-5.52-5.088-3.161-3.444-4.832-6.563-4.832-9.017a4.913 4.913 0 0 1 4.906-4.905z"/></svg>