<svg xmlns="http://www.w3.org/2000/svg" width="73" height="93.777" viewBox="0 0 73 93.777"><g fill-rule="evenodd" clip-rule="evenodd" fill="#FFF"><path d="M20.275 93.777c1.212-.826 2.311-1.479 3.302-2.265 5.82-4.617 8.929-10.777 10.02-18.012.894-5.925-.01-11.729-1.465-17.47-.375-1.482-1.042-2.789-2.48-3.517-7.479-3.783-13.23-9.627-18.76-15.733-1.021-1.127-1.998-2.295-2.99-3.447-.047-.055-.053-.145-.113-.32l3.354-4.251c5.386 6.856 10.755 13.567 18.435 18.278-2.706-9.04-6.696-17.164-12.26-24.296l3.677-3.842c.274.328.635.733.967 1.16 6.543 8.392 10.674 17.934 12.974 28.235 1.906 8.539 3.448 17.161 5.049 25.766 1.513 8.13 5.565 14.558 12.419 19.204.163.11.32.234.475.358.018.014.002.069.002.15-10.798.002-21.598.002-32.606.002z"/><path d="M4.947 37.265c.726 2.109 1.406 4.234 2.186 6.323 1.752 4.697 3.819 9.246 6.724 13.363 2.663 3.775 6.114 6.405 10.762 7.244.274.049.554.084.832.104.109.008.223-.046.594-.132-.338-1.869-.639-3.742-1.041-5.593-.08-.371-.5-.714-.838-.974-.536-.413-1.133-.751-1.708-1.113-2.783-1.752-3.254-3.403-1.795-6.57.987.688 1.957 1.372 2.934 2.045.726.499 1.405 1.116 2.202 1.452 2.961 1.25 4.193 3.545 4.464 6.63.265 3.017.731 6.015 1.118 9.098-3.256.88-6.256.868-9.267.303-4.918-.924-8.768-3.561-11.788-7.479-4.067-5.276-6.629-11.285-8.534-17.61-.066-.221-.155-.506-.073-.69.956-2.176 1.943-4.339 2.922-6.505l.306.104zm58.639 10.358l-18.821 4.623c.013-1.45.485-2.203 1.935-2.597 7.751-2.105 15.467-4.341 23.194-6.529.379-.107.763-.196 1.319-.339l1.631 5.882-23.817 6.043.05.236L73 51.025v5.85H43.532c.079-2.178.555-2.811 2.457-3.408 5.528-1.736 11.056-3.475 16.582-5.215.365-.114.723-.255 1.084-.383a11.3 11.3 0 0 0-.069-.246zM22.584 17.098l6.415-6.843c.259.296.454.487.613.706 6.313 8.664 11.015 18.104 13.378 28.595 1.335 5.926.517 11.75-1.645 17.43 2.323-10.04-.16-19.288-4.541-28.374-.601.701-1.218 1.287-1.647 1.987-.187.305-.106.898.055 1.273 1.869 4.351 3.498 8.785 3.961 13.526.21 2.149.002 4.339-.227 6.532C36 39.116 31.408 27.14 22.584 17.098zM33.52 27.689c.3-.371.483-.706.76-.921.975-.758 1.141-1.532.43-2.63-1.783-2.75-3.473-5.561-5.197-8.349-.144-.232-.265-.48-.297-.539l-2.276 1.946c2.2 3.511 4.32 6.892 6.58 10.493zm11.833 21.104c.052-.893.092-1.523.124-2.155.048-.957.335-1.985.086-2.86-.666-2.347.612-3.375 2.348-4.501 4.895-3.177 9.684-6.515 14.63-9.868 2.944 3.659 5.892 7.252 7.969 11.661-8.405 2.579-16.667 5.117-25.157 7.723zm3.772-4.168l16.799-5.758-3.544-5.047c-.53.299-.882.48-1.217.688-3.566 2.212-7.131 4.428-10.694 6.643-1.763 1.095-1.762 1.096-1.344 3.474zm23.469 13.986c-.607 2.954-1.612 5.659-3.24 8.121-2.177 3.292-2.179 3.293-5.945 2.11-6.938-2.179-13.876-4.36-20.813-6.544-.412-.13-.813-.297-1.254-.46.468-1.176.846-2.315 1.388-3.372.166-.325.784-.597 1.191-.592 4.284.056 8.567.166 12.85.275 4.884.125 9.767.265 14.649.399.354.012.708.038 1.174.063zm-27.359 2.491c.13.086.22.185.328.211 6.6 1.6 13.2 3.197 19.806 4.776.227.055.652.007.724-.13.818-1.563 1.586-3.152 2.447-4.896-.708-.081-1.019-.132-1.331-.149-6.833-.384-13.667-.738-20.497-1.168-1.135-.072-1.344.503-1.477 1.356zm4.74-44.43l7.81 7.757-7.2 5.99-3.374-3.595-.206.12 2.192 4.526-5.105 4.293c-.229-.885-.503-1.624-.578-2.383-.033-.339.248-.81.529-1.063 1.835-1.659 1.85-1.646.843-3.967-.157-.362-.343-.713-.598-1.24l-2.286 2.444c-.323-.876-.633-1.6-.845-2.351-.071-.253.012-.661.185-.855 2.859-3.235 5.743-6.447 8.633-9.676zm.771 10.161l3.371-2.819a25824.55 25824.55 0 0 0-3.545-3.949 19432.98 19432.98 0 0 1-3.265 3.591l3.439 3.177zm-5.361 41.191c.584 3.806 3.194 5.666 5.88 7.514-4.717.329-10.77-7.121-10.085-12.497l23.659 8.722c-1.672 1.549-3.492 2.456-5.542 2.88-.366.075-.836-.197-1.221-.387-3.767-1.856-7.524-3.731-11.287-5.598-.384-.19-.783-.353-1.404-.634z"/><path d="M7.334 63.837c5.341 7.847 12.903 10.052 22.129 8.662-1.963 1.643-3.992 2.624-6.22 3.003-4.483.763-8.798.018-12.764-2.193-3.577-1.995-4.844-5.931-3.145-9.472zm33.188-38.338c-.405-.854-.754-1.517-1.026-2.209-.084-.213.022-.513.079-.764.023-.104.147-.184.224-.277 1.596-1.954 1.596-1.955.075-4.128-.335.362-.652.703-.966 1.047-.289.316-.573.637-.948 1.055-.378-.689-.752-1.257-.998-1.875-.101-.251-.03-.706.146-.911 2.188-2.544 4.409-5.059 6.661-7.626 1.818 1.938 3.608 3.843 5.485 5.842l-8.732 9.846zM44.118 13.5c-.829.919-1.574 1.695-2.252 2.527-.175.215-.29.684-.175.894.332.605.796 1.14 1.272 1.79l2.945-3.337-1.79-1.874zm-5.973-3.66l1.721 2.377a35235.78 35235.78 0 0 1-3.868 4.381L30.417 8.9 36.704 0c.543.906 1.148 1.843 1.66 2.828.119.229.009.688-.155.936-1.039 1.563-2.081 3.128-3.212 4.624-.465.616-.579 1.043-.016 1.626.489.508.896 1.094 1.398 1.718l1.766-1.892zM55.67 28.169l2.295 2.711-12.813 8.895c-.214-.921-.428-1.703-.558-2.499-.035-.211.126-.546.305-.687 3.548-2.793 7.111-5.566 10.771-8.42zM4.073 66.823C1.131 63.123-.709 55.183.26 50.47c.247.544.403.904.571 1.26 1.248 2.634 2.474 5.279 3.767 7.892.332.673.383 1.215.06 1.904-.741 1.578-1.19 3.227-.585 5.297zM61.73 28.349c-.931.644-1.771 1.226-2.744 1.897l-2.401-2.763 2.458-2.008 2.687 2.874z"/></g></svg>