<svg xmlns="http://www.w3.org/2000/svg" width="480.672" height="226.093" viewBox="0 51.184 480.672 226.093"><path fill="#933EC5" d="M295.609 51.184L0 221.855l31.999 55.422 295.61-170.664-32-55.429zM39.812 248.137l-10.656-18.478 184.751-106.664 10.654 18.478L39.812 248.137zm192.562-135.813l55.422-32.001 10.673 18.478-55.423 32-10.672-18.477zm235.624-21.728h-12.656V78.06c0-7.005-5.678-12.674-12.675-12.674-6.996 0-12.673 5.668-12.673 12.674v12.536h-12.656c-6.996 0-12.674 5.668-12.674 12.665 0 6.996 5.678 12.664 12.674 12.664h12.656v12.674c0 6.997 5.677 12.665 12.673 12.665 6.997 0 12.675-5.668 12.675-12.665v-12.674h12.656c7.014 0 12.674-5.668 12.674-12.664 0-6.997-5.66-12.665-12.674-12.665zm-50.66 126.677h-12.674v-12.536c0-6.997-5.661-12.665-12.674-12.665-6.998 0-12.656 5.668-12.656 12.665v12.536h-12.676c-6.996 0-12.674 5.669-12.674 12.665 0 7.004 5.678 12.674 12.674 12.674h12.676v12.664c0 6.997 5.66 12.665 12.656 12.665 7.013 0 12.674-5.668 12.674-12.665v-12.664h12.674c6.996 0 12.656-5.667 12.656-12.674 0-6.998-5.66-12.665-12.656-12.665z"/></svg>