<svg xmlns="http://www.w3.org/2000/svg" width="42.73" height="44.708" viewBox="0 0 42.73 44.708"><path d="M5 22.48c0-9.236 7.514-16.75 16.75-16.75 4.772 0 9.182 1.964 12.35 5.437h-6.035a2.5 2.5 0 1 0 0 5H39.23a2.5 2.5 0 0 0 2.5-2.5V2.5a2.5 2.5 0 1 0-5 0v4.219C32.719 2.92 27.343.73 21.75.73 9.757.73 0 10.487 0 22.48a2.5 2.5 0 1 0 5 0zm35.23-2.751a2.5 2.5 0 0 0-2.5 2.5c0 9.236-7.514 16.75-16.75 16.75-4.738 0-9.15-1.979-12.32-5.437h6.007a2.5 2.5 0 1 0 0-5H3.5a2.5 2.5 0 0 0-2.5 2.5v11.166a2.5 2.5 0 1 0 5 0V37.99a21.604 21.604 0 0 0 14.98 5.988c11.993 0 21.75-9.757 21.75-21.75a2.5 2.5 0 0 0-2.5-2.499z" fill="#fff"/></svg>