<svg xmlns="http://www.w3.org/2000/svg" width="23" height="27.431" viewBox="0 0 23 27.431" fill="#6200ea"><path fill-rule="evenodd" clip-rule="evenodd" d="M12.34 21.85c.078.416.121.843.243 1.246.189.627.407 1.248.659 1.854.285.687.634 1.349 1.278 1.776.181.121.412.166.622.241.056.021.133.002.173.035.078.066.137.156.204.235-.091.063-.181.129-.274.187-.019.013-.051.003-.077.003-2.473 0-4.946 0-7.419.002-.146 0-.293-.035-.265-.193.019-.101.163-.248.256-.251.532-.024.9-.319 1.207-.701.685-.854 1.063-1.854 1.333-2.9.116-.453.224-.907.333-1.362a.328.328 0 0 0-.021-.227c-.178.203-.35.413-.535.608-.508.535-1.092.981-1.777 1.245a5.213 5.213 0 0 1-2.455.317 6.267 6.267 0 0 1-2.139-.597 6.442 6.442 0 0 1-2.06-1.618C.938 20.947.501 20.021.203 19.023a4.687 4.687 0 0 1-.176-1.138c-.034-.844-.08-1.699.161-2.52.177-.604.415-1.193.679-1.764.453-.979 1.141-1.809 1.825-2.629.518-.622 1.116-1.178 1.677-1.765C5.521 8.004 6.703 6.83 7.814 5.59c.909-1.014 1.739-2.102 2.39-3.308.352-.652.667-1.324 1.012-1.98.062-.115.183-.201.278-.302.079.091.184.171.234.276.577 1.208 1.16 2.412 1.997 3.471.608.77 1.184 1.566 1.822 2.309.569.661 1.202 1.268 1.813 1.892.528.54 1.074 1.061 1.595 1.607.813.856 1.618 1.718 2.306 2.685.512.72.974 1.47 1.255 2.303.214.635.356 1.305.438 1.971a6.53 6.53 0 0 1-.207 2.564 7.086 7.086 0 0 1-1.182 2.395c-.696.912-1.559 1.611-2.615 2.052a5.892 5.892 0 0 1-2.895.435c-.974-.098-1.837-.426-2.576-1.055-.35-.298-.653-.649-.979-.977-.035-.035-.071-.067-.107-.101a.846.846 0 0 0-.053.023z"/></svg>