<svg xmlns="http://www.w3.org/2000/svg" width="26.001" height="24.959" viewBox="0 0 26.001 24.959"><path fill="#933EC5" d="M25.883 9.36a2.347 2.347 0 0 0-1.908-1.609l-6.117-.89-2.736-5.544A2.355 2.355 0 0 0 13 0c-.907 0-1.719.505-2.12 1.318L8.145 6.862l-6.119.89A2.346 2.346 0 0 0 .118 9.36a2.349 2.349 0 0 0 .598 2.423l4.427 4.315-1.045 6.095a2.346 2.346 0 0 0 .94 2.311 2.385 2.385 0 0 0 2.49.181L13 21.808l5.472 2.878a2.353 2.353 0 0 0 2.491-.181 2.348 2.348 0 0 0 .939-2.312l-1.045-6.096 4.428-4.314a2.347 2.347 0 0 0 .598-2.423zM7.61 16.454a2.368 2.368 0 0 0-.68-2.093l-4.29-4.182 5.93-.861a2.364 2.364 0 0 0 1.779-1.293L13 2.652l2.652 5.373a2.36 2.36 0 0 0 1.779 1.293l5.93.861-4.291 4.182a2.368 2.368 0 0 0-.68 2.093l1.014 5.905-5.304-2.788a2.376 2.376 0 0 0-2.199 0l-5.304 2.787 1.013-5.904z"/></svg>