<svg xmlns="http://www.w3.org/2000/svg" width="512" height="512" viewBox="0 0 512 512"><path fill="#933EC5" d="M46.757 152.405c49.698-42.678 88.957-76.419 195.464-16.236 51.166 28.905 92.439 39.817 126.8 39.811 60.16 0 99.135-33.467 132.847-62.436 12.021-10.32 13.568-28.644 3.453-40.925-10.114-12.283-28.057-13.87-40.078-3.533-49.692 42.695-88.945 76.425-195.486 16.23C129.018 5.814 63.101 62.447 10.132 107.941c-12.016 10.326-13.568 28.65-3.453 40.932 10.108 12.276 28.052 13.863 40.078 3.532zm418.485 61.941c-49.692 42.684-88.945 76.419-195.486 16.23-140.738-79.508-206.655-22.875-259.624 22.625-12.016 10.331-13.568 28.654-3.453 40.92 10.108 12.282 28.058 13.869 40.078 3.539 49.698-42.684 88.957-76.419 195.464-16.242 51.166 28.905 92.439 39.822 126.8 39.822 60.16 0 99.135-33.474 132.847-62.436 12.021-10.331 13.568-28.655 3.453-40.926-10.109-12.293-28.052-13.869-40.079-3.532zm0 145.243c-49.692 42.689-88.945 76.419-195.486 16.236-140.738-79.508-206.655-22.875-259.624 22.624-12.016 10.326-13.568 28.655-3.453 40.938 10.108 12.266 28.058 13.858 40.078 3.527 49.698-42.695 88.951-76.413 195.464-16.247 51.166 28.916 92.439 39.821 126.8 39.821 60.16 0 99.135-33.473 132.847-62.43 12.021-10.325 13.568-28.66 3.453-40.937-10.115-12.275-28.052-13.851-40.079-3.532z"/></svg>