<?xml version="1.0" encoding="utf-8"?>
<!-- Generator: Adobe Illustrator 16.0.0, SVG Export Plug-In . SVG Version: 6.00 Build 0)  -->
<!DOCTYPE svg PUBLIC "-//W3C//DTD SVG 1.1//EN" "http://www.w3.org/Graphics/SVG/1.1/DTD/svg11.dtd">
<svg version="1.1" id="Layer_1" xmlns="http://www.w3.org/2000/svg" xmlns:xlink="http://www.w3.org/1999/xlink" x="0px" y="0px"
	 width="15px" height="12.009px" viewBox="0 0 15 12.009" enable-background="new 0 0 15 12.009" xml:space="preserve">
<path fill-rule="evenodd" clip-rule="evenodd" fill="#ffffff" d="M14.019,0.194c-0.681-0.361-1.438-0.211-2.04,0.406
	c-0.131,0.134-0.258,0.272-0.386,0.409C9.729,3.01,7.864,5.012,5.998,7.011c-0.365,0.391-0.525,0.391-0.89,0.002
	C4.389,6.249,3.687,5.47,2.956,4.717c-0.833-0.858-2.15-0.669-2.719,0.374C0.143,5.263,0.078,5.452,0,5.632c0,0.275,0,0.55,0,0.825
	c0.156,0.321,0.27,0.661,0.525,0.932c1.258,1.337,2.503,2.688,3.764,4.021c0.766,0.812,1.798,0.792,2.561-0.026
	c2.53-2.713,5.057-5.429,7.588-8.14c0.273-0.292,0.445-0.629,0.525-1.017C15.127,1.438,14.723,0.568,14.019,0.194z"/>
</svg>
