<?xml version="1.0" encoding="utf-8"?>
<!-- Generator: Adobe Illustrator 16.0.0, SVG Export Plug-In . SVG Version: 6.00 Build 0)  -->
<!DOCTYPE svg PUBLIC "-//W3C//DTD SVG 1.1//EN" "http://www.w3.org/Graphics/SVG/1.1/DTD/svg11.dtd">
<svg version="1.1" id="Capa_1" xmlns="http://www.w3.org/2000/svg" xmlns:xlink="http://www.w3.org/1999/xlink" x="0px" y="0px"
	 width="512px" height="512px" viewBox="0 0 512 512" enable-background="new 0 0 512 512" xml:space="preserve">
<g>
	<path fill="#933EC5" d="M510.807,249.601c-0.172-0.445-0.361-0.883-0.567-1.313c-22.704-47.155-58.04-87.043-102.182-115.352
		c-45.355-29.088-97.936-44.461-152.054-44.461c-54.117,0-106.7,15.375-152.056,44.466c-43.98,28.204-79.217,67.908-101.931,114.836
		c-2.546,4.876-2.734,10.771-0.26,15.913c22.702,47.162,58.038,87.057,102.184,115.371c45.357,29.092,97.94,44.468,152.063,44.468
		c54.121,0,106.703-15.376,152.059-44.466c44.146-28.312,79.479-68.204,102.184-115.361
		C512.371,259.283,512.57,254.171,510.807,249.601z M256.004,388.038c-91.279,0-176.063-51.548-218.393-132.041
		c42.329-80.492,127.113-132.039,218.393-132.039c91.278,0,176.064,51.552,218.394,132.041
		C432.066,336.484,347.28,388.038,256.004,388.038z"/>
	<path fill="#933EC5" d="M256.002,178.125c-42.939,0-77.875,34.936-77.875,77.875s34.936,77.875,77.875,77.875
		s77.875-34.936,77.875-77.875S298.942,178.125,256.002,178.125z M256.002,298.389c-23.372,0-42.389-19.017-42.389-42.389
		s19.017-42.388,42.389-42.388s42.389,19.016,42.389,42.388S279.374,298.389,256.002,298.389z"/>
</g>
</svg>
