<?xml version="1.0" encoding="utf-8"?>
<!-- Generator: Adobe Illustrator 16.0.0, SVG Export Plug-In . SVG Version: 6.00 Build 0)  -->
<!DOCTYPE svg PUBLIC "-//W3C//DTD SVG 1.1//EN" "http://www.w3.org/Graphics/SVG/1.1/DTD/svg11.dtd">
<svg version="1.1" id="Layer_1" xmlns="http://www.w3.org/2000/svg" xmlns:xlink="http://www.w3.org/1999/xlink" x="0px" y="0px"
	 width="27.382px" height="24px" viewBox="0 0 27.382 24" enable-background="new 0 0 27.382 24" xml:space="preserve">
<g>
	<g>
		<path fill="#933EC5" d="M17.921,2.001c0.263,0,0.521-0.106,0.707-0.293c0.186-0.187,0.293-0.443,0.293-0.707
			s-0.107-0.521-0.293-0.708C18.441,0.107,18.184,0,17.921,0S17.4,0.107,17.214,0.293c-0.186,0.187-0.293,0.444-0.293,0.708
			c0,0.263,0.107,0.521,0.293,0.707C17.4,1.895,17.658,2.001,17.921,2.001z"/>
		<path fill="#933EC5" d="M23.513,8.771c0.263,0,0.521-0.107,0.707-0.293c0.187-0.188,0.293-0.444,0.293-0.707
			c0-0.264-0.106-0.521-0.293-0.707c-0.188-0.188-0.444-0.293-0.707-0.293c-0.264,0-0.521,0.105-0.707,0.293
			c-0.187,0.186-0.293,0.442-0.293,0.707c0,0.263,0.106,0.52,0.293,0.707C22.992,8.663,23.248,8.771,23.513,8.771z"/>
		<path fill="#933EC5" d="M1.515,8.771c0.265,0,0.521-0.107,0.708-0.293C2.408,8.29,2.515,8.033,2.515,7.771
			c0-0.264-0.106-0.521-0.292-0.707C2.036,6.876,1.778,6.771,1.515,6.771c-0.263,0-0.521,0.105-0.707,0.293
			C0.622,7.249,0.515,7.506,0.515,7.771c0,0.263,0.107,0.52,0.293,0.707C0.994,8.663,1.252,8.771,1.515,8.771z"/>
		<path fill="#933EC5" d="M13.359,22c-0.263,0-0.521,0.107-0.707,0.293c-0.187,0.186-0.292,0.444-0.292,0.708
			s0.105,0.521,0.292,0.707C12.839,23.895,13.096,24,13.359,24s0.521-0.105,0.707-0.292c0.187-0.187,0.293-0.443,0.293-0.707
			s-0.106-0.521-0.293-0.708C13.88,22.107,13.623,22,13.359,22z"/>
		<path fill="#933EC5" d="M21.908,5.184c0.439-0.332,0.527-0.957,0.197-1.398c-0.332-0.442-0.959-0.531-1.4-0.2
			c-0.076,0.057-1.872,1.422-3.437,4.104c-1.434,2.458-2.949,6.552-2.026,12.091c0.082,0.489,0.505,0.836,0.985,0.836
			c0.055,0,0.11-0.005,0.165-0.014c0.545-0.091,0.914-0.606,0.822-1.151c-0.656-3.939-0.072-7.532,1.736-10.677
			C20.311,6.412,21.893,5.195,21.908,5.184z"/>
		<path fill="#933EC5" d="M6.404,3.585c-0.44-0.33-1.064-0.241-1.396,0.198c-0.333,0.44-0.245,1.067,0.194,1.4
			C5.218,5.195,6.8,6.412,8.159,8.774c1.808,3.145,2.393,6.737,1.736,10.678c-0.091,0.544,0.277,1.06,0.822,1.15
			c0.056,0.01,0.111,0.014,0.165,0.014c0.48,0,0.904-0.347,0.986-0.836c0.923-5.539-0.592-9.633-2.026-12.091
			C8.277,5.007,6.48,3.642,6.404,3.585z"/>
		<path fill="#933EC5" d="M12.846,7.078c0.485,0,0.912-0.355,0.987-0.85c0.618-4.058-3.245-6.04-3.41-6.122
			C9.929-0.141,9.328,0.06,9.081,0.554C8.834,1.047,9.034,1.648,9.528,1.896c0.027,0.014,2.729,1.396,2.327,4.031
			c-0.083,0.546,0.292,1.057,0.838,1.14C12.745,7.074,12.796,7.078,12.846,7.078z"/>
		<path fill="#933EC5" d="M27.33,10.838c-0.175-0.523-0.74-0.808-1.266-0.632c-0.059,0.02-1.463,0.496-2.861,1.661
			c-1.896,1.58-2.898,3.675-2.898,6.057c0,0.553,0.448,1,1,1c0.553,0,1.001-0.447,1.001-1c0-4.272,4.212-5.759,4.396-5.821
			C27.223,11.927,27.505,11.361,27.33,10.838z"/>
		<path fill="#933EC5" d="M1,10.154c-0.552,0-1,0.448-1,1c0,0.553,0.448,1,1,1c1.696,0,2.847,0.633,3.52,1.933
			c0.537,1.036,0.556,2.122,0.556,2.148c0.002,0.551,0.449,0.996,1,0.996c0.552,0,1-0.447,1-1c0-0.062-0.008-1.522-0.74-2.985
			C5.631,11.836,4.133,10.154,1,10.154z"/>
	</g>
</g>
</svg>
