<?xml version="1.0" encoding="utf-8"?>
<!-- Generator: Adobe Illustrator 16.0.0, SVG Export Plug-In . SVG Version: 6.00 Build 0)  -->
<!DOCTYPE svg PUBLIC "-//W3C//DTD SVG 1.1//EN" "http://www.w3.org/Graphics/SVG/1.1/DTD/svg11.dtd">
<svg version="1.1" id="Layer_1" xmlns="http://www.w3.org/2000/svg" xmlns:xlink="http://www.w3.org/1999/xlink" x="0px" y="0px"
	 width="26px" height="24.988px" viewBox="0 0 26 24.988" enable-background="new 0 0 26 24.988" xml:space="preserve">
<path fill="#933EC5" d="M18.447,0C16.376,0,14.421,0.841,13,2.325C11.578,0.841,9.624,0,7.553,0C3.388,0,0,3.388,0,7.553
	c0,3.175,1.86,6.811,5.529,10.807c2.779,3.029,5.812,5.382,6.675,6.03L13,24.988l0.796-0.598c0.865-0.651,3.904-3.011,6.675-6.03
	C24.14,14.363,26,10.728,26,7.553C26,3.388,22.612,0,18.447,0z M7.553,2.648c1.779,0,3.423,0.97,4.289,2.532L13,7.27l1.158-2.089
	c0.866-1.563,2.51-2.533,4.289-2.533c2.704,0,4.904,2.201,4.904,4.905c0,2.455-1.671,5.573-4.831,9.017
	c-2.052,2.234-4.235,4.07-5.521,5.088c-1.286-1.018-3.47-2.854-5.52-5.088c-3.161-3.444-4.832-6.563-4.832-9.017
	C2.648,4.849,4.849,2.648,7.553,2.648z"/>
</svg>
