<?xml version="1.0" encoding="utf-8"?>
<!-- Generator: Adobe Illustrator 16.0.0, SVG Export Plug-In . SVG Version: 6.00 Build 0)  -->
<!DOCTYPE svg PUBLIC "-//W3C//DTD SVG 1.1//EN" "http://www.w3.org/Graphics/SVG/1.1/DTD/svg11.dtd">
<svg version="1.1" id="Layer_1" xmlns="http://www.w3.org/2000/svg" xmlns:xlink="http://www.w3.org/1999/xlink" x="0px" y="0px"
	 width="73px" height="93.777px" viewBox="0 0 73 93.777" enable-background="new 0 0 73 93.777" xml:space="preserve">
<g>
	<path fill-rule="evenodd" clip-rule="evenodd" fill="#FFFFFF" d="M20.275,93.777c1.212-0.826,2.311-1.479,3.302-2.265
		c5.82-4.617,8.929-10.777,10.02-18.012c0.894-5.925-0.01-11.729-1.465-17.47c-0.375-1.482-1.042-2.789-2.48-3.517
		c-7.479-3.783-13.23-9.627-18.76-15.733c-1.021-1.127-1.998-2.295-2.99-3.447c-0.047-0.055-0.053-0.145-0.113-0.32
		c1.07-1.356,2.175-2.757,3.354-4.251c5.386,6.856,10.755,13.567,18.435,18.278c-2.706-9.04-6.696-17.164-12.26-24.296
		c1.23-1.285,2.407-2.515,3.677-3.842c0.274,0.328,0.635,0.733,0.967,1.16c6.543,8.392,10.674,17.934,12.974,28.235
		c1.906,8.539,3.448,17.161,5.049,25.766c1.513,8.13,5.565,14.558,12.419,19.204c0.163,0.11,0.32,0.234,0.475,0.358
		c0.018,0.014,0.002,0.069,0.002,0.15C42.083,93.777,31.283,93.777,20.275,93.777z"/>
	<path fill-rule="evenodd" clip-rule="evenodd" fill="#FFFFFF" d="M4.947,37.265c0.726,2.109,1.406,4.234,2.186,6.323
		c1.752,4.697,3.819,9.246,6.724,13.363c2.663,3.775,6.114,6.405,10.762,7.244c0.274,0.049,0.554,0.084,0.832,0.104
		c0.109,0.008,0.223-0.046,0.594-0.132c-0.338-1.869-0.639-3.742-1.041-5.593c-0.08-0.371-0.5-0.714-0.838-0.974
		c-0.536-0.413-1.133-0.751-1.708-1.113c-2.783-1.752-3.254-3.403-1.795-6.57c0.987,0.688,1.957,1.372,2.934,2.045
		c0.726,0.499,1.405,1.116,2.202,1.452c2.961,1.25,4.193,3.545,4.464,6.63c0.265,3.017,0.731,6.015,1.118,9.098
		c-3.256,0.88-6.256,0.868-9.267,0.303c-4.918-0.924-8.768-3.561-11.788-7.479C6.259,56.69,3.697,50.681,1.792,44.356
		c-0.066-0.221-0.155-0.506-0.073-0.69c0.956-2.176,1.943-4.339,2.922-6.505C4.743,37.195,4.845,37.23,4.947,37.265z"/>
	<path fill-rule="evenodd" clip-rule="evenodd" fill="#FFFFFF" d="M63.586,47.623c-6.254,1.536-12.509,3.072-18.821,4.623
		c0.013-1.45,0.485-2.203,1.935-2.597c7.751-2.105,15.467-4.341,23.194-6.529c0.379-0.107,0.763-0.196,1.319-0.339
		c0.537,1.938,1.056,3.806,1.631,5.882c-8.019,2.034-15.918,4.039-23.817,6.043c0.017,0.079,0.033,0.157,0.05,0.236
		C57.02,53.642,64.964,52.341,73,51.025c0,2.063,0,3.947,0,5.85c-9.954,0-19.709,0-29.468,0c0.079-2.178,0.555-2.811,2.457-3.408
		c5.528-1.736,11.056-3.475,16.582-5.215c0.365-0.114,0.723-0.255,1.084-0.383C63.633,47.787,63.61,47.705,63.586,47.623z"/>
	<path fill-rule="evenodd" clip-rule="evenodd" fill="#FFFFFF" d="M22.584,17.098c2.166-2.311,4.265-4.55,6.415-6.843
		c0.259,0.296,0.454,0.487,0.613,0.706c6.313,8.664,11.015,18.104,13.378,28.595c1.335,5.926,0.517,11.75-1.645,17.43
		c2.323-10.04-0.16-19.288-4.541-28.374c-0.601,0.701-1.218,1.287-1.647,1.987c-0.187,0.305-0.106,0.898,0.055,1.273
		c1.869,4.351,3.498,8.785,3.961,13.526c0.21,2.149,0.002,4.339-0.227,6.532C36,39.116,31.408,27.14,22.584,17.098z M33.52,27.689
		c0.3-0.371,0.483-0.706,0.76-0.921c0.975-0.758,1.141-1.532,0.43-2.63c-1.783-2.75-3.473-5.561-5.197-8.349
		c-0.144-0.232-0.265-0.48-0.297-0.539c-0.911,0.779-1.631,1.395-2.276,1.946C29.14,20.707,31.26,24.088,33.52,27.689z"/>
	<path fill-rule="evenodd" clip-rule="evenodd" fill="#FFFFFF" d="M45.353,48.793c0.052-0.893,0.092-1.523,0.124-2.155
		c0.048-0.957,0.335-1.985,0.086-2.86c-0.666-2.347,0.612-3.375,2.348-4.501c4.895-3.177,9.684-6.515,14.63-9.868
		c2.944,3.659,5.892,7.252,7.969,11.661C62.105,43.649,53.843,46.187,45.353,48.793z M49.125,44.625
		c5.59-1.916,11.075-3.796,16.799-5.758c-1.263-1.798-2.393-3.407-3.544-5.047c-0.53,0.299-0.882,0.48-1.217,0.688
		c-3.566,2.212-7.131,4.428-10.694,6.643C48.706,42.246,48.707,42.247,49.125,44.625z"/>
	<path fill-rule="evenodd" clip-rule="evenodd" fill="#FFFFFF" d="M72.594,58.611c-0.607,2.954-1.612,5.659-3.24,8.121
		c-2.177,3.292-2.179,3.293-5.945,2.11c-6.938-2.179-13.876-4.36-20.813-6.544c-0.412-0.13-0.813-0.297-1.254-0.46
		c0.468-1.176,0.846-2.315,1.388-3.372c0.166-0.325,0.784-0.597,1.191-0.592c4.284,0.056,8.567,0.166,12.85,0.275
		c4.884,0.125,9.767,0.265,14.649,0.399C71.774,58.56,72.128,58.586,72.594,58.611z M45.235,61.102
		c0.13,0.086,0.22,0.185,0.328,0.211c6.6,1.6,13.2,3.197,19.806,4.776c0.227,0.055,0.652,0.007,0.724-0.13
		c0.818-1.563,1.586-3.152,2.447-4.896c-0.708-0.081-1.019-0.132-1.331-0.149c-6.833-0.384-13.667-0.738-20.497-1.168
		C45.577,59.674,45.368,60.249,45.235,61.102z"/>
	<path fill-rule="evenodd" clip-rule="evenodd" fill="#FFFFFF" d="M49.975,16.672c2.641,2.624,5.164,5.129,7.81,7.757
		c-2.362,1.966-4.743,3.945-7.2,5.99c-1.152-1.227-2.263-2.41-3.374-3.595c-0.068,0.04-0.138,0.08-0.206,0.12
		c0.72,1.485,1.439,2.972,2.192,4.526c-1.668,1.402-3.314,2.788-5.105,4.293c-0.229-0.885-0.503-1.624-0.578-2.383
		c-0.033-0.339,0.248-0.81,0.529-1.063c1.835-1.659,1.85-1.646,0.843-3.967c-0.157-0.362-0.343-0.713-0.598-1.24
		c-0.771,0.824-1.463,1.563-2.286,2.444c-0.323-0.876-0.633-1.6-0.845-2.351c-0.071-0.253,0.012-0.661,0.185-0.855
		C44.201,23.113,47.085,19.901,49.975,16.672z M50.746,26.833c1.126-0.941,2.361-1.975,3.371-2.819
		c-1.208-1.346-2.341-2.608-3.545-3.949c-1.108,1.219-2.161,2.377-3.265,3.591C48.51,24.767,49.584,25.759,50.746,26.833z"/>
	<path fill-rule="evenodd" clip-rule="evenodd" fill="#FFFFFF" d="M45.385,68.024c0.584,3.806,3.194,5.666,5.88,7.514
		c-4.717,0.329-10.77-7.121-10.085-12.497c7.853,2.895,15.675,5.778,23.659,8.722c-1.672,1.549-3.492,2.456-5.542,2.88
		c-0.366,0.075-0.836-0.197-1.221-0.387c-3.767-1.856-7.524-3.731-11.287-5.598C46.405,68.468,46.006,68.305,45.385,68.024z"/>
	<path fill-rule="evenodd" clip-rule="evenodd" fill="#FFFFFF" d="M7.334,63.837c5.341,7.847,12.903,10.052,22.129,8.662
		c-1.963,1.643-3.992,2.624-6.22,3.003c-4.483,0.763-8.798,0.018-12.764-2.193C6.902,71.314,5.635,67.378,7.334,63.837z"/>
	<path fill-rule="evenodd" clip-rule="evenodd" fill="#FFFFFF" d="M40.522,25.499c-0.405-0.854-0.754-1.517-1.026-2.209
		c-0.084-0.213,0.022-0.513,0.079-0.764c0.023-0.104,0.147-0.184,0.224-0.277c1.596-1.954,1.596-1.955,0.075-4.128
		c-0.335,0.362-0.652,0.703-0.966,1.047c-0.289,0.316-0.573,0.637-0.948,1.055c-0.378-0.689-0.752-1.257-0.998-1.875
		c-0.101-0.251-0.03-0.706,0.146-0.911c2.188-2.544,4.409-5.059,6.661-7.626c1.818,1.938,3.608,3.843,5.485,5.842
		C46.378,18.895,43.507,22.132,40.522,25.499z M44.118,13.5c-0.829,0.919-1.574,1.695-2.252,2.527
		c-0.175,0.215-0.29,0.684-0.175,0.894c0.332,0.605,0.796,1.14,1.272,1.79c1.052-1.192,1.99-2.255,2.945-3.337
		C45.29,14.728,44.749,14.16,44.118,13.5z"/>
	<path fill-rule="evenodd" clip-rule="evenodd" fill="#FFFFFF" d="M38.145,9.84c0.585,0.808,1.116,1.542,1.721,2.377
		c-1.273,1.442-2.531,2.867-3.868,4.381c-1.892-2.609-3.728-5.142-5.581-7.698C32.461,6.006,34.568,3.023,36.704,0
		c0.543,0.906,1.148,1.843,1.66,2.828c0.119,0.229,0.009,0.688-0.155,0.936c-1.039,1.563-2.081,3.128-3.212,4.624
		c-0.465,0.616-0.579,1.043-0.016,1.626c0.489,0.508,0.896,1.094,1.398,1.718C36.995,11.072,37.528,10.501,38.145,9.84z"/>
	<path fill-rule="evenodd" clip-rule="evenodd" fill="#FFFFFF" d="M55.67,28.169c0.802,0.947,1.495,1.767,2.295,2.711
		c-4.26,2.957-8.449,5.865-12.813,8.895c-0.214-0.921-0.428-1.703-0.558-2.499c-0.035-0.211,0.126-0.546,0.305-0.687
		C48.447,33.796,52.01,31.023,55.67,28.169z"/>
	<path fill-rule="evenodd" clip-rule="evenodd" fill="#FFFFFF" d="M4.073,66.823c-2.942-3.7-4.782-11.64-3.813-16.353
		c0.247,0.544,0.403,0.904,0.571,1.26c1.248,2.634,2.474,5.279,3.767,7.892c0.332,0.673,0.383,1.215,0.06,1.904
		C3.917,63.104,3.468,64.753,4.073,66.823z"/>
	<path fill-rule="evenodd" clip-rule="evenodd" fill="#FFFFFF" d="M61.73,28.349c-0.931,0.644-1.771,1.226-2.744,1.897
		c-0.795-0.914-1.561-1.796-2.401-2.763c0.83-0.678,1.586-1.296,2.458-2.008C59.95,26.445,60.808,27.363,61.73,28.349z"/>
</g>
</svg>
