<?xml version="1.0" encoding="utf-8"?>
<!-- Generator: Adobe Illustrator 16.0.0, SVG Export Plug-In . SVG Version: 6.00 Build 0)  -->
<!DOCTYPE svg PUBLIC "-//W3C//DTD SVG 1.1//EN" "http://www.w3.org/Graphics/SVG/1.1/DTD/svg11.dtd">
<svg version="1.1" id="Layer_1" xmlns="http://www.w3.org/2000/svg" xmlns:xlink="http://www.w3.org/1999/xlink" x="0px" y="0px"
	 width="480.672px" height="226.093px" viewBox="0 51.184 480.672 226.093" enable-background="new 0 51.184 480.672 226.093"
	 xml:space="preserve">
<g>
	<g>
		<path fill="#933EC5" d="M295.609,51.184L0,221.855l31.999,55.422l295.61-170.664L295.609,51.184z M39.812,248.137l-10.656-18.478
			l184.751-106.664l10.654,18.478L39.812,248.137z M232.374,112.324l55.422-32.001l10.673,18.478l-55.423,32L232.374,112.324z"/>
	</g>
</g>
<g>
	<g>
		<path fill="#933EC5" d="M467.998,90.596h-12.656V78.06c0-7.005-5.678-12.674-12.675-12.674c-6.996,0-12.673,5.668-12.673,12.674
			v12.536h-12.656c-6.996,0-12.674,5.668-12.674,12.665c0,6.996,5.678,12.664,12.674,12.664h12.656v12.674
			c0,6.997,5.677,12.665,12.673,12.665c6.997,0,12.675-5.668,12.675-12.665v-12.674h12.656c7.014,0,12.674-5.668,12.674-12.664
			C480.672,96.264,475.012,90.596,467.998,90.596z"/>
	</g>
</g>
<g>
	<g>
		<path fill="#933EC5" d="M417.338,217.273h-12.674v-12.536c0-6.997-5.661-12.665-12.674-12.665
			c-6.998,0-12.656,5.668-12.656,12.665v12.536h-12.676c-6.996,0-12.674,5.669-12.674,12.665c0,7.004,5.678,12.674,12.674,12.674
			h12.676v12.664c0,6.997,5.66,12.665,12.656,12.665c7.013,0,12.674-5.668,12.674-12.665v-12.664h12.674
			c6.996,0,12.656-5.667,12.656-12.674C429.994,222.94,424.334,217.273,417.338,217.273z"/>
	</g>
</g>
</svg>
