<?xml version="1.0" encoding="utf-8"?>
<!-- Generator: Adobe Illustrator 16.0.0, SVG Export Plug-In . SVG Version: 6.00 Build 0)  -->
<!DOCTYPE svg PUBLIC "-//W3C//DTD SVG 1.1//EN" "http://www.w3.org/Graphics/SVG/1.1/DTD/svg11.dtd">
<svg version="1.1" id="Layer_1" xmlns="http://www.w3.org/2000/svg" xmlns:xlink="http://www.w3.org/1999/xlink" x="0px" y="0px"
	 width="42.73px" height="44.708px" viewBox="0 0 42.73 44.708" enable-background="new 0 0 42.73 44.708" xml:space="preserve">
<g>
	<path fill="#5D5D5D" d="M5,22.48c0-9.236,7.514-16.75,16.75-16.75c4.772,0,9.182,1.964,12.35,5.437h-6.035
		c-1.381,0-2.5,1.119-2.5,2.5s1.119,2.5,2.5,2.5H39.23c1.381,0,2.5-1.119,2.5-2.5V2.5c0-1.381-1.119-2.5-2.5-2.5s-2.5,1.119-2.5,2.5
		v4.219C32.719,2.92,27.343,0.73,21.75,0.73C9.757,0.73,0,10.487,0,22.48c0,1.381,1.119,2.5,2.5,2.5S5,23.861,5,22.48z"/>
	<path fill="#5D5D5D" d="M40.23,19.729c-1.381,0-2.5,1.119-2.5,2.5c0,9.236-7.514,16.75-16.75,16.75
		c-4.738,0-9.15-1.979-12.32-5.437h6.007c1.381,0,2.5-1.119,2.5-2.5s-1.119-2.5-2.5-2.5H3.5c-1.381,0-2.5,1.119-2.5,2.5v11.166
		c0,1.381,1.119,2.5,2.5,2.5s2.5-1.119,2.5-2.5v-4.218c4.018,3.833,9.327,5.988,14.98,5.988c11.993,0,21.75-9.757,21.75-21.75
		C42.73,20.848,41.611,19.729,40.23,19.729z"/>
</g>
</svg>
