<?xml version="1.0" encoding="utf-8"?>
<!-- Generator: Adobe Illustrator 16.0.0, SVG Export Plug-In . SVG Version: 6.00 Build 0)  -->
<!DOCTYPE svg PUBLIC "-//W3C//DTD SVG 1.1//EN" "http://www.w3.org/Graphics/SVG/1.1/DTD/svg11.dtd">
<svg version="1.1" id="Layer_1" xmlns="http://www.w3.org/2000/svg" xmlns:xlink="http://www.w3.org/1999/xlink" x="0px" y="0px"
	 width="23px" height="27.431px" viewBox="0 0 23 27.431" fill="#6200ea" xml:space="preserve">
<path fill-rule="evenodd" clip-rule="evenodd" d="M12.34,21.85c0.078,0.416,0.121,0.843,0.243,1.246
	c0.189,0.627,0.407,1.248,0.659,1.854c0.285,0.687,0.634,1.349,1.278,1.776c0.181,0.121,0.412,0.166,0.622,0.241
	c0.056,0.021,0.133,0.002,0.173,0.035c0.078,0.066,0.137,0.156,0.204,0.235c-0.091,0.063-0.181,0.129-0.274,0.187
	c-0.019,0.013-0.051,0.003-0.077,0.003c-2.473,0-4.946,0-7.419,0.002c-0.146,0-0.293-0.035-0.265-0.193
	c0.019-0.101,0.163-0.248,0.256-0.251c0.532-0.024,0.9-0.319,1.207-0.701c0.685-0.854,1.063-1.854,1.333-2.9
	c0.116-0.453,0.224-0.907,0.333-1.362c0.016-0.064,0.02-0.131-0.021-0.227c-0.178,0.203-0.35,0.413-0.535,0.608
	c-0.508,0.535-1.092,0.981-1.777,1.245c-0.783,0.303-1.604,0.406-2.455,0.317c-0.752-0.078-1.464-0.266-2.139-0.597
	c-0.8-0.394-1.478-0.939-2.06-1.618c-0.688-0.803-1.125-1.729-1.423-2.727c-0.109-0.364-0.16-0.756-0.176-1.138
	c-0.034-0.844-0.08-1.699,0.161-2.52c0.177-0.604,0.415-1.193,0.679-1.764c0.453-0.979,1.141-1.809,1.825-2.629
	c0.518-0.622,1.116-1.178,1.677-1.765c1.152-1.203,2.334-2.377,3.445-3.617c0.909-1.014,1.739-2.102,2.39-3.308
	c0.352-0.652,0.667-1.324,1.012-1.98C11.278,0.187,11.399,0.101,11.494,0c0.079,0.091,0.184,0.171,0.234,0.276
	c0.577,1.208,1.16,2.412,1.997,3.471c0.608,0.77,1.184,1.566,1.822,2.309c0.569,0.661,1.202,1.268,1.813,1.892
	c0.528,0.54,1.074,1.061,1.595,1.607c0.813,0.856,1.618,1.718,2.306,2.685c0.512,0.72,0.974,1.47,1.255,2.303
	c0.214,0.635,0.356,1.305,0.438,1.971c0.105,0.86,0.028,1.731-0.207,2.564c-0.243,0.864-0.631,1.672-1.182,2.395
	c-0.696,0.912-1.559,1.611-2.615,2.052c-0.923,0.385-1.885,0.535-2.895,0.435c-0.974-0.098-1.837-0.426-2.576-1.055
	c-0.35-0.298-0.653-0.649-0.979-0.977c-0.035-0.035-0.071-0.067-0.107-0.101C12.375,21.834,12.357,21.842,12.34,21.85z"/>
</svg>
