<?xml version="1.0" encoding="utf-8"?>
<!-- Generator: Adobe Illustrator 16.0.0, SVG Export Plug-In . SVG Version: 6.00 Build 0)  -->
<!DOCTYPE svg PUBLIC "-//W3C//DTD SVG 1.1//EN" "http://www.w3.org/Graphics/SVG/1.1/DTD/svg11.dtd">
<svg version="1.1" id="Layer_1" xmlns="http://www.w3.org/2000/svg" xmlns:xlink="http://www.w3.org/1999/xlink" x="0px" y="0px"
	 width="26.001px" height="24.959px" viewBox="0 0 26.001 24.959" enable-background="new 0 0 26.001 24.959" xml:space="preserve">
<path fill="#933EC5" d="M25.883,9.36c-0.279-0.863-1.012-1.479-1.908-1.609l-6.117-0.89l-2.736-5.544C14.719,0.505,13.907,0,13,0
	c-0.907,0-1.719,0.505-2.12,1.318L8.145,6.862l-6.119,0.89C1.129,7.881,0.398,8.498,0.118,9.36c-0.28,0.862-0.051,1.791,0.598,2.423
	l4.427,4.315l-1.045,6.095c-0.154,0.893,0.207,1.779,0.94,2.311c0.719,0.523,1.702,0.596,2.49,0.181L13,21.808l5.472,2.878
	c0.342,0.178,0.723,0.273,1.102,0.273c0.502,0,0.98-0.158,1.389-0.454c0.732-0.533,1.094-1.419,0.939-2.312l-1.045-6.096
	l4.428-4.314C25.934,11.15,26.164,10.222,25.883,9.36z M7.61,16.454c0.131-0.767-0.123-1.549-0.68-2.093L2.64,10.179l5.93-0.861
	c0.77-0.112,1.435-0.596,1.779-1.293L13,2.652l2.652,5.373c0.344,0.698,1.01,1.182,1.779,1.293l5.93,0.861l-4.291,4.182
	c-0.557,0.544-0.811,1.326-0.68,2.093l1.014,5.905L14.1,19.571c-0.337-0.177-0.718-0.271-1.099-0.271s-0.762,0.094-1.1,0.271
	l-5.304,2.787L7.61,16.454z"/>
</svg>
