<?xml version="1.0" encoding="utf-8"?>
<!-- Generator: Adobe Illustrator 16.0.0, SVG Export Plug-In . SVG Version: 6.00 Build 0)  -->
<!DOCTYPE svg PUBLIC "-//W3C//DTD SVG 1.1//EN" "http://www.w3.org/Graphics/SVG/1.1/DTD/svg11.dtd">
<svg version="1.1" id="Capa_1" xmlns="http://www.w3.org/2000/svg" xmlns:xlink="http://www.w3.org/1999/xlink" x="0px" y="0px"
	 width="512px" height="512px" viewBox="0 0 512 512" enable-background="new 0 0 512 512" xml:space="preserve">
<g>
	<path fill="#933EC5" d="M46.757,152.405c49.698-42.678,88.957-76.419,195.464-16.236c51.166,28.905,92.439,39.817,126.8,39.811
		c60.16,0,99.135-33.467,132.847-62.436c12.021-10.32,13.568-28.644,3.453-40.925c-10.114-12.283-28.057-13.87-40.078-3.533
		c-49.692,42.695-88.945,76.425-195.486,16.23C129.018,5.814,63.101,62.447,10.132,107.941
		c-12.016,10.326-13.568,28.65-3.453,40.932C16.787,161.149,34.731,162.736,46.757,152.405z M465.242,214.346
		c-49.692,42.684-88.945,76.419-195.486,16.23c-140.738-79.508-206.655-22.875-259.624,22.625
		c-12.016,10.331-13.568,28.654-3.453,40.92c10.108,12.282,28.058,13.869,40.078,3.539c49.698-42.684,88.957-76.419,195.464-16.242
		c51.166,28.905,92.439,39.822,126.8,39.822c60.16,0,99.135-33.474,132.847-62.436c12.021-10.331,13.568-28.655,3.453-40.926
		C495.212,205.585,477.269,204.009,465.242,214.346z M465.242,359.589c-49.692,42.689-88.945,76.419-195.486,16.236
		C129.018,296.317,63.101,352.95,10.132,398.449c-12.016,10.326-13.568,28.655-3.453,40.938
		c10.108,12.266,28.058,13.858,40.078,3.527c49.698-42.695,88.951-76.413,195.464-16.247c51.166,28.916,92.439,39.821,126.8,39.821
		c60.16,0,99.135-33.473,132.847-62.43c12.021-10.325,13.568-28.66,3.453-40.937C495.206,350.846,477.269,349.27,465.242,359.589z"
		/>
</g>
</svg>
