<?xml version="1.0" encoding="UTF-8" standalone="no"?>
<!-- Created with Inkscape (http://www.inkscape.org/) -->

<svg
   xmlns:dc="http://purl.org/dc/elements/1.1/"
   xmlns:cc="http://creativecommons.org/ns#"
   xmlns:rdf="http://www.w3.org/1999/02/22-rdf-syntax-ns#"
   xmlns:svg="http://www.w3.org/2000/svg"
   xmlns="http://www.w3.org/2000/svg"
   xmlns:sodipodi="http://sodipodi.sourceforge.net/DTD/sodipodi-0.dtd"
   xmlns:inkscape="http://www.inkscape.org/namespaces/inkscape"
   id="svg2"
   version="1.1"
   inkscape:version="0.91 r13725"
   xml:space="preserve"
   width="186.37625"
   height="159.1875"
   viewBox="0 0 186.37625 159.1875"
   sodipodi:docname="Векторный смарт-объект.ai"><metadata
     id="metadata8"><rdf:RDF><cc:Work
         rdf:about=""><dc:format>image/svg+xml</dc:format><dc:type
           rdf:resource="http://purl.org/dc/dcmitype/StillImage" /><dc:title></dc:title></cc:Work></rdf:RDF></metadata><defs
     id="defs6"><clipPath
       clipPathUnits="userSpaceOnUse"
       id="clipPath16"><path
         d="m 0,127.35 149.101,0 L 149.101,0 0,0 0,127.35 Z"
         id="path18"
         inkscape:connector-curvature="0" /></clipPath></defs><sodipodi:namedview
     pagecolor="#ffffff"
     bordercolor="#666666"
     borderopacity="1"
     objecttolerance="10"
     gridtolerance="10"
     guidetolerance="10"
     inkscape:pageopacity="0"
     inkscape:pageshadow="2"
     inkscape:window-width="1920"
     inkscape:window-height="1001"
     id="namedview4"
     showgrid="false"
     inkscape:zoom="1.4825285"
     inkscape:cx="93.188126"
     inkscape:cy="79.59375"
     inkscape:window-x="-9"
     inkscape:window-y="-9"
     inkscape:window-maximized="1"
     inkscape:current-layer="g10" /><g
     id="g10"
     inkscape:groupmode="layer"
     inkscape:label="Векторный смарт-объект"
     transform="matrix(1.25,0,0,-1.25,0,159.1875)"><g
       id="g12"><g
         id="g14"
         clip-path="url(#clipPath16)"><g
           id="g20"
           transform="translate(95.0811,58.0732)"><path
             d="m 0,0 c 1.001,0 2.077,-0.127 3.23,-0.375 1.153,-0.251 2.206,-0.651 3.157,-1.2 0.952,-0.551 1.727,-1.275 2.33,-2.175 0.599,-0.9 0.902,-1.95 0.902,-3.15 0,-1.5 -0.377,-2.7 -1.127,-3.6 -0.753,-0.9 -1.704,-1.601 -2.857,-2.1 -1.154,-0.502 -2.405,-0.851 -3.757,-1.05 -1.353,-0.202 -2.581,-0.3 -3.683,-0.3 l -63.876,0 0,13.95 L 0,0 Z m -9.754,39.45 c 1.102,0 2.304,-0.1 3.607,-0.298 1.303,-0.197 2.505,-0.569 3.607,-1.113 1.102,-0.544 2.004,-1.261 2.707,-2.151 0.7,-0.891 1.052,-2.028 1.052,-3.413 0,-1.385 -0.377,-2.498 -1.127,-3.337 C -0.66,28.296 -1.612,27.603 -2.766,27.059 -3.918,26.515 -5.145,26.143 -6.447,25.945 -7.75,25.748 -8.903,25.65 -9.906,25.65 l -55.775,0 0,13.8 55.927,0 z m 7.973,-61.8 c 2.4,0 4.801,0.274 7.2,0.828 2.4,0.552 4.523,1.458 6.375,2.713 1.85,1.256 3.35,2.865 4.5,4.824 1.148,1.96 1.726,4.347 1.726,7.16 0,2.513 -0.502,4.722 -1.5,6.633 C 15.519,1.716 14.168,3.3 12.469,4.557 10.768,5.812 8.844,6.767 6.694,7.42 4.543,8.072 2.318,8.4 0.02,8.4 l -73.951,0 0,-30.75 72.15,0 z m -8.1,39.6 c 2.401,0 4.748,0.274 7.05,0.825 2.3,0.548 4.374,1.425 6.226,2.625 1.848,1.2 3.323,2.775 4.424,4.725 1.099,1.95 1.65,4.275 1.65,6.975 0,2.798 -0.525,5.175 -1.574,7.125 -1.051,1.95 -2.476,3.548 -4.276,4.8 -1.8,1.249 -3.85,2.15 -6.15,2.7 -2.301,0.548 -4.701,0.825 -7.199,0.825 l -64.201,0 0,-30.6 64.05,0 z M -9.773,57 c 4.106,0 7.91,-0.45 11.417,-1.35 3.503,-0.9 6.532,-2.351 9.086,-4.35 2.555,-2.001 4.556,-4.552 6.009,-7.65 1.453,-3.101 2.23,-6.851 2.33,-11.25 0,-2.4 -0.525,-4.675 -1.575,-6.825 -1.05,-2.151 -2.325,-4.026 -3.825,-5.625 -1.5,-1.6 -3.101,-2.876 -4.8,-3.825 -1.701,-0.951 -3.15,-1.477 -4.349,-1.575 2.699,-0.201 5.399,-0.876 8.099,-2.025 2.7,-1.151 5.123,-2.676 7.276,-4.575 2.148,-1.901 3.922,-4.101 5.324,-6.6 1.399,-2.5 2.1,-5.25 2.1,-8.25 0,-4.5 -0.753,-8.325 -2.255,-11.475 -1.502,-3.15 -3.579,-5.7 -6.232,-7.65 -2.652,-1.95 -5.758,-3.352 -9.311,-4.2 C 5.965,-31.076 2.185,-31.5 -1.82,-31.5 l -81.261,0 0,88.5 73.308,0 z m 7.886,-96.9 c 5.394,0 10.388,0.624 14.982,1.875 4.593,1.25 8.541,3.199 11.836,5.85 3.296,2.649 5.892,6.049 7.791,10.2 1.898,4.149 2.847,9.173 2.847,15.075 0,5 -1.364,9.45 -4.088,13.35 -2.725,3.9 -6.813,6.998 -12.262,9.3 1.2,0.998 2.3,2.175 3.301,3.525 0.998,1.35 1.848,2.775 2.549,4.275 0.699,1.5 1.249,3.023 1.65,4.575 0.398,1.549 0.6,2.975 0.6,4.275 0,5.7 -0.9,10.624 -2.7,14.775 -1.8,4.148 -4.326,7.575 -7.575,10.275 -3.251,2.7 -7.15,4.699 -11.7,6 -4.551,1.298 -9.576,1.95 -15.074,1.95 l -81.601,0 0,-105.3 89.444,0 z m -93.194,109.176 85.351,0 c 9,0 17.148,-1.5 24.449,-4.5 7.299,-3 14.1,-8.25 20.4,-15.75 2.1,-2.501 3.998,-5.575 5.7,-9.224 1.7,-3.652 2.9,-7.451 3.6,-11.401 0.698,-3.951 0.725,-7.825 0.075,-11.625 -0.651,-3.801 -2.275,-7.049 -4.875,-9.75 2.6,-1.001 4.8,-2.676 6.6,-5.024 1.801,-2.352 3.274,-4.927 4.426,-7.726 1.148,-2.8 1.999,-5.65 2.549,-8.549 0.548,-2.902 0.826,-5.401 0.826,-7.5 0,-6.502 -1.028,-12.026 -3.076,-16.576 -2.05,-4.548 -4.875,-8.298 -8.475,-11.25 -3.6,-2.948 -7.901,-5.099 -12.9,-6.45 -5.002,-1.349 -10.451,-2.024 -16.35,-2.024 l -92.85,0 -15.45,14.55 0,112.799 z"
             style="fill:#7d2ced;fill-opacity:1;fill-rule:nonzero;stroke:none"
             id="path22"
             inkscape:connector-curvature="0" /></g></g></g></g></svg>