<?xml version="1.0" encoding="UTF-8" standalone="no"?>
<!-- Created with Inkscape (http://www.inkscape.org/) -->

<svg
   xmlns:dc="http://purl.org/dc/elements/1.1/"
   xmlns:cc="http://creativecommons.org/ns#"
   xmlns:rdf="http://www.w3.org/1999/02/22-rdf-syntax-ns#"
   xmlns:svg="http://www.w3.org/2000/svg"
   xmlns="http://www.w3.org/2000/svg"
   xmlns:sodipodi="http://sodipodi.sourceforge.net/DTD/sodipodi-0.dtd"
   xmlns:inkscape="http://www.inkscape.org/namespaces/inkscape"
   id="svg2"
   version="1.1"
   inkscape:version="0.91 r13725"
   xml:space="preserve"
   width="362.66751"
   height="639.99878"
   viewBox="0 0 362.66751 639.99878"
   sodipodi:docname="Векторный смарт-объект5.ai"><metadata
     id="metadata8"><rdf:RDF><cc:Work
         rdf:about=""><dc:format>image/svg+xml</dc:format><dc:type
           rdf:resource="http://purl.org/dc/dcmitype/StillImage" /><dc:title></dc:title></cc:Work></rdf:RDF></metadata><defs
     id="defs6"><clipPath
       clipPathUnits="userSpaceOnUse"
       id="clipPath16"><path
         d="m 0,511.999 290.134,0 L 290.134,0 0,0 0,511.999 Z"
         id="path18"
         inkscape:connector-curvature="0" /></clipPath></defs><sodipodi:namedview
     pagecolor="#ffffff"
     bordercolor="#666666"
     borderopacity="1"
     objecttolerance="10"
     gridtolerance="10"
     guidetolerance="10"
     inkscape:pageopacity="0"
     inkscape:pageshadow="2"
     inkscape:window-width="1920"
     inkscape:window-height="1001"
     id="namedview4"
     showgrid="false"
     inkscape:zoom="0.3687507"
     inkscape:cx="181.33376"
     inkscape:cy="319.99939"
     inkscape:window-x="-9"
     inkscape:window-y="-9"
     inkscape:window-maximized="1"
     inkscape:current-layer="g10" /><g
     id="g10"
     inkscape:groupmode="layer"
     inkscape:label="Векторный смарт-объект5"
     transform="matrix(1.25,0,0,-1.25,0,639.99875)"><g
       id="g12"
       transform="matrix(1,0,0,-1,0,511.9989)"
       style="fill:#6200ea;fill-opacity:1"><g
         id="g14"
         clip-path="url(#clipPath16)"
         style="fill:#6200ea;fill-opacity:1"><g
           id="g20"
           transform="translate(289.3344,336.3999)"
           style="fill:#6200ea;fill-opacity:1"><path
             d="m 0,0 c -1.398,3.004 -4.411,4.932 -7.73,4.932 l -101.121,0 99.797,157.568 c 1.664,2.628 1.767,5.956 0.266,8.678 -1.503,2.731 -4.37,4.421 -7.477,4.421 l -136.532,0 c -3.235,0 -6.187,-1.826 -7.638,-4.719 l -128,-256 c -1.323,-2.637 -1.178,-5.777 0.375,-8.294 1.562,-2.517 4.301,-4.053 7.263,-4.053 l 87.747,0 -95.616,-227.089 c -1.629,-3.883 -0.179,-8.388 3.414,-10.59 1.381,-0.845 2.918,-1.254 4.445,-1.254 2.45,0 4.865,1.05 6.537,3.029 L -1.202,-9.104 C 0.938,-6.562 1.399,-3.012 0,0"
             style="fill:#6200ea;fill-opacity:1;fill-rule:nonzero;stroke:none"
             id="path22"
             inkscape:connector-curvature="0" /></g></g></g></g></svg>