<?xml version="1.0" encoding="UTF-8" standalone="no"?>
<!-- Created with Inkscape (http://www.inkscape.org/) -->

<svg
   xmlns:dc="http://purl.org/dc/elements/1.1/"
   xmlns:cc="http://creativecommons.org/ns#"
   xmlns:rdf="http://www.w3.org/1999/02/22-rdf-syntax-ns#"
   xmlns:svg="http://www.w3.org/2000/svg"
   xmlns="http://www.w3.org/2000/svg"
   xmlns:sodipodi="http://sodipodi.sourceforge.net/DTD/sodipodi-0.dtd"
   xmlns:inkscape="http://www.inkscape.org/namespaces/inkscape"
   id="svg2"
   version="1.1"
   inkscape:version="0.91 r13725"
   xml:space="preserve"
   width="176.25"
   height="159.18875"
   viewBox="0 0 176.25 159.18875"
   sodipodi:docname="Векторный смарт-объект1.ai"><metadata
     id="metadata8"><rdf:RDF><cc:Work
         rdf:about=""><dc:format>image/svg+xml</dc:format><dc:type
           rdf:resource="http://purl.org/dc/dcmitype/StillImage" /><dc:title></dc:title></cc:Work></rdf:RDF></metadata><defs
     id="defs6" /><sodipodi:namedview
     pagecolor="#ffffff"
     bordercolor="#666666"
     borderopacity="1"
     objecttolerance="10"
     gridtolerance="10"
     guidetolerance="10"
     inkscape:pageopacity="0"
     inkscape:pageshadow="2"
     inkscape:window-width="1920"
     inkscape:window-height="1001"
     id="namedview4"
     showgrid="false"
     inkscape:zoom="1.4825168"
     inkscape:cx="88.125"
     inkscape:cy="79.594376"
     inkscape:window-x="-9"
     inkscape:window-y="-9"
     inkscape:window-maximized="1"
     inkscape:current-layer="g10" /><g
     id="g10"
     inkscape:groupmode="layer"
     inkscape:label="Векторный смарт-объект1"
     transform="matrix(1.25,0,0,-1.25,0,159.18875)"><g
       id="g12"
       transform="translate(92.8512,127.3509)"><path
         d="m 0,0 0,-39.901 -44.852,0 0,24.451 L -59.4,0 l -33.451,0 0,-112.801 15.451,-14.55 32.548,0 0,39.901 44.852,0 0,-25.351 15.449,-14.55 32.7,0 0,111.901 L 33.6,0 0,0 Z m 3.75,-43.501 0,39.751 25.95,0 0,-105.301 -25.95,0 0,39.9 -67.051,0 0,-39.9 -25.8,0 0,105.301 25.8,0 0,-39.751 67.051,0 z m 8.251,31.35 0,-39.749 -83.551,0 0,39.749 -9.302,0 0,-88.5 9.302,0 0,39.901 83.551,0 0,-39.901 9.449,0 0,88.5 -9.449,0 z"
         style="fill:#7d2ced;fill-opacity:1;fill-rule:nonzero;stroke:none"
         id="path14"
         inkscape:connector-curvature="0" /></g></g></svg>