<?xml version="1.0" encoding="UTF-8" standalone="no"?>
<!-- Created with Inkscape (http://www.inkscape.org/) -->

<svg
   xmlns:dc="http://purl.org/dc/elements/1.1/"
   xmlns:cc="http://creativecommons.org/ns#"
   xmlns:rdf="http://www.w3.org/1999/02/22-rdf-syntax-ns#"
   xmlns:svg="http://www.w3.org/2000/svg"
   xmlns="http://www.w3.org/2000/svg"
   xmlns:sodipodi="http://sodipodi.sourceforge.net/DTD/sodipodi-0.dtd"
   xmlns:inkscape="http://www.inkscape.org/namespaces/inkscape"
   id="svg2"
   version="1.1"
   inkscape:version="0.91 r13725"
   xml:space="preserve"
   width="98.883621"
   height="118.96425"
   viewBox="0 0 98.883621 118.96425"
   sodipodi:docname="Векторный смарт-объект2.ai"><metadata
     id="metadata8"><rdf:RDF><cc:Work
         rdf:about=""><dc:format>image/svg+xml</dc:format><dc:type
           rdf:resource="http://purl.org/dc/dcmitype/StillImage" /><dc:title></dc:title></cc:Work></rdf:RDF></metadata><defs
     id="defs6" /><sodipodi:namedview
     pagecolor="#ffffff"
     bordercolor="#666666"
     borderopacity="1"
     objecttolerance="10"
     gridtolerance="10"
     guidetolerance="10"
     inkscape:pageopacity="0"
     inkscape:pageshadow="2"
     inkscape:window-width="1920"
     inkscape:window-height="1001"
     id="namedview4"
     showgrid="false"
     inkscape:zoom="1.9837893"
     inkscape:cx="49.441811"
     inkscape:cy="59.482124"
     inkscape:window-x="-9"
     inkscape:window-y="-9"
     inkscape:window-maximized="1"
     inkscape:current-layer="g10" /><g
     id="g10"
     inkscape:groupmode="layer"
     inkscape:label="Векторный смарт-объект2"
     transform="matrix(1.25,0,0,-1.25,0,118.96425)"><g
       id="g12"
       transform="translate(61.1532,95.1714)"><path
         d="M 0,0 -16.335,-0.405 -18.9,0 -21.6,-0.405 -24.57,0 l -13.364,-0.27 -2.835,-0.27 -2.565,0.27 -7.965,0 -2.699,-0.27 -2.835,0.54 -2.565,-1.62 -1.35,-2.7 -0.405,-5.265 0.405,-2.835 0.135,-5.265 -0.27,-2.699 -0.135,-5.67 0.27,-2.835 -0.405,-16.199 0.27,-2.43 -0.135,-10.8 0.405,-2.835 -0.405,-24.164 0.405,-2.835 -0.27,-2.429 1.35,-3.24 2.565,-1.215 2.97,0.405 5.534,-0.269 2.565,0.404 2.7,0 2.835,-0.675 2.565,1.62 1.485,2.97 -0.27,53.188 0.27,2.565 0,3.104 0.27,2.295 -0.27,2.7 1.215,2.835 2.835,1.62 2.699,-0.54 2.7,0.135 2.565,0.405 5.4,-0.27 2.43,0.135 5.265,-0.27 2.7,-1.35 1.62,-3.915 -0.271,-61.557 1.62,-4.05 2.835,-1.08 2.565,0.27 4.05,-0.405 7.964,0.27 4.59,1.215 1.35,2.295 -0.135,5.669 0.271,2.431 -0.271,3.105 0.271,5.399 -0.406,5.4 0.406,5.13 -0.54,12.149 0.404,4.05 -0.27,11.07 0.27,2.429 -0.135,29.834 -1.08,2.43 -4.319,1.35 -6.75,0.405 L 2.564,-0.27 0,0 Z m -27,-3.105 0.135,1.08 1.215,0.27 0.675,-0.81 -0.809,-1.35 -1.216,0.81 z m -5.939,0.54 1.079,-0.27 -0.945,-0.54 -0.81,0 0.676,0.81 z m 0.945,-1.485 1.08,0.135 0.674,1.215 1.081,-0.135 -0.541,-0.405 -1.214,-1.08 -0.676,-0.675 -0.404,0.945 z m -16.74,1.35 1.215,0 -1.08,-0.405 -0.945,-0.675 -0.54,0 1.35,1.08 z m 19.709,-0.135 0.136,0 0.404,-0.81 -0.54,0 0,0.81 z m -12.959,-0.135 0.81,0.135 0.27,-0.675 -0.81,0 -0.27,0.54 z m 4.185,-2.43 2.295,1.08 2.025,-0.54 1.35,-2.43 -1.08,0 -1.89,1.485 -2.43,0 -0.27,0.405 z m -2.565,0.945 0.54,0.135 0,-0.675 -0.675,0 0.135,0.54 z m 13.364,-1.35 0,1.215 0.945,-0.405 0.135,-1.08 -1.08,0.27 z m 8.775,0.81 0.27,0.27 0.27,-0.27 -0.27,-0.675 -0.27,0.675 z m -33.074,-1.215 1.351,0.54 0.674,-0.945 0.81,-0.405 0.54,0.405 -0.54,-0.81 -1.08,0.405 -1.215,-0.27 -0.54,1.08 z m 10.665,-0.945 0.54,0.675 0.945,-0.135 -0.405,-0.675 -1.08,0.135 z m -18.224,-19.979 0.945,0.54 -0.945,2.295 1.349,1.215 0.946,0 -0.135,0.675 -0.675,2.025 1.485,2.159 -0.81,1.216 -0.27,0.539 -1.08,0.136 0,1.35 1.62,0.404 0.405,0.54 -2.16,0.675 -0.405,1.755 0.54,0.81 0.675,0.54 -1.485,0.945 1.89,1.485 1.484,0 0.406,-0.675 1.08,-0.81 -0.27,-1.215 -1.216,-0.54 0.27,1.62 -0.944,-0.54 -1.755,-1.485 1.89,-1.484 1.755,0 0.27,0.539 0.27,-0.539 -0.406,-0.81 0.541,-0.811 1.35,0.135 0,-0.809 -2.025,-0.946 -1.08,-1.485 2.295,-1.889 -0.54,-3.375 -1.351,-1.35 0.946,-1.62 -2.7,-0.945 -1.755,-0.81 -0.405,0.54 z m 26.324,17.549 4.049,-0.405 6.885,0.27 2.564,-0.27 21.735,0 2.565,-1.485 1.62,-2.7 -0.27,-2.834 0.27,-16.335 -0.405,-3.779 0.405,-44.953 -0.81,-2.971 -1.485,-0.134 -0.945,2.565 0.135,19.168 0.27,2.701 -0.405,2.565 0.27,13.634 -0.27,2.7 0,2.834 0.405,2.835 -0.135,19.035 -1.485,2.969 -2.7,1.216 -7.965,0.404 -5.264,-0.674 -2.835,0.134 -2.835,0 -4.995,0.406 -2.97,-0.27 -13.364,0.27 -2.565,-0.136 -2.97,-1.62 -1.215,-4.184 0,-3.78 0.27,-2.97 -0.27,-2.7 0,-48.868 0.27,-2.834 -0.27,-2.565 -0.675,-2.971 -1.35,0.136 -0.944,2.699 0.134,2.835 -0.27,2.7 0.136,3.105 0.27,2.295 -0.27,5.67 0.27,2.835 -0.27,2.699 0,38.339 0.27,2.295 0.134,5.399 1.08,2.97 2.7,1.755 2.565,-0.405 2.835,-0.27 8.1,0.675 z m -4.59,-5.535 -0.54,0.81 1.215,-0.135 0.54,-0.945 -1.215,0.27 z m 7.29,-0.944 1.215,0.81 0.81,0.674 0.269,-0.134 -0.405,-1.486 -1.485,-0.404 -0.404,0.54 z m 4.994,-1.08 -1.215,0.81 0.271,0.674 1.079,0.27 1.08,-0.81 0,-2.159 -1.485,-1.215 -2.565,0.405 0.27,1.08 1.485,0.134 0.81,-0.134 0.27,0.945 z m 19.979,1.484 0.675,-0.81 -1.08,0 0.405,0.81 z m -39.553,-17.009 0.81,1.485 -0.675,2.025 0.675,1.08 -0.81,1.215 0.81,1.485 -1.35,0.54 -0.135,2.025 0.675,2.7 1.215,1.889 0.54,1.485 -0.675,0.946 1.215,-0.27 1.755,-1.08 1.62,-1.351 2.835,-0.27 0,1.891 1.89,-0.675 2.429,0.945 0.81,-1.081 -0.81,-0.404 -1.215,-1.755 -2.834,-0.54 -1.62,-1.215 -1.08,0.945 -1.485,1.755 -0.27,-0.945 0.27,-0.135 -0.405,0.135 -0.54,-2.43 -2.43,-2.16 1.62,-0.405 1.62,1.215 1.08,1.62 0.405,-1.485 -1.89,-2.025 0.675,-3.105 -0.54,-2.43 -1.62,0.675 -0.54,-1.62 1.08,-0.405 0,-0.54 -1.08,-0.135 -1.485,-0.405 -0.54,0.81 z m 22.409,16.605 0.945,0.134 -0.54,-0.81 -0.81,0 0.405,0.676 z m -16.334,-0.81 0.54,0.134 0.27,-0.675 -0.675,-0.134 -0.135,0.675 z m 36.718,-2.161 -1.35,0.54 0.405,1.08 -0.54,0.406 0.54,-0.135 0.675,-1.215 0.945,-0.81 -0.675,0.134 z m -12.959,1.756 0.405,0.27 -0.271,-0.54 -0.539,-0.27 0.405,0.54 z m 8.37,-2.295 0.809,1.079 0.811,-1.214 -0.946,-0.945 -0.674,1.08 z m -12.69,-0.405 0.27,1.08 0.945,-0.27 0,-0.945 -1.215,0.135 z m 18.764,-3.915 0.27,0.405 0.27,-0.81 -0.54,-0.54 0,0.945 z m -54.402,-8.235 -2.43,0.405 -1.08,1.35 0.675,1.755 2.429,0.27 -1.214,-1.62 -1.351,-0.135 1.621,-0.675 1.89,0.675 0,-0.81 0.675,-1.35 -0.27,-0.405 -0.945,0.54 z m -2.43,-2.295 -1.08,0.27 -0.135,0.81 2.16,0 1.349,-0.135 0,-1.755 -1.619,-0.54 -0.675,1.35 z m 13.769,-5.13 -0.405,1.621 -0.54,2.429 1.62,1.08 1.62,-0.27 0.405,-1.485 0.81,-0.404 -0.27,-0.946 -1.89,1.215 -0.54,1.756 -0.54,-1.891 1.35,-1.62 0.675,-1.079 -1.08,-0.54 -0.135,-1.62 -0.81,-0.135 -0.27,1.889 z m -10.124,4.185 0.54,0.405 0.134,-0.945 -0.404,-0.27 -0.27,0.81 z m 64.661,-5.129 0.406,0.27 0.269,0.81 0.54,0 -0.404,-0.676 -0.405,-0.539 -0.675,-0.405 0.269,0.54 z m -66.822,-0.405 0.81,0 0.406,-0.405 -0.54,-0.135 -0.676,0.54 z m 53.728,-0.945 0.676,0 0.269,-0.675 -0.54,0 -0.405,0.675 z m -41.038,-2.295 -0.27,0.945 0.81,-0.27 0.54,-0.81 -1.08,0.135 z m -14.579,-1.215 0.945,0.405 -0.27,-0.945 -0.675,-0.405 0,0.945 z m 13.769,-1.62 0,0.81 1.08,-0.135 0.135,-0.81 -1.215,0.135 z m 58.183,-7.56 -0.406,0.27 0.811,0.135 0.404,-0.675 -0.809,0.27 z m -13.5,-1.08 0.945,0.27 -0.405,-0.809 -0.945,-0.541 0.405,1.08 z m 12.96,-0.675 0.945,0.27 0.404,-0.54 -0.809,-0.27 -0.54,0.54 z m -56.968,0 0.81,-0.405 0.27,-0.675 -0.27,0.405 -0.81,0 0,0.675 z m 57.508,-1.889 0.674,0.539 0.675,-0.539 -0.944,-0.54 -0.405,0.54 z m -16.74,-2.295 0.54,0.27 0.541,0.134 -0.406,-0.54 -1.08,-0.27 0.405,0.406 z m 14.31,-2.43 1.215,0 -0.135,1.62 0.944,0.404 0.54,-1.754 0.406,-1.755 0,-1.35 -0.811,0.405 0.811,0.945 -0.675,0.81 -1.62,-0.27 -0.811,0.81 0.136,-0.946 0.944,-2.294 0.811,-1.215 0.944,-1.215 -1.349,-0.81 0.54,0.945 -2.026,0.945 -0.944,1.08 1.215,0.675 -0.406,1.215 -0.54,0 0,0.674 0.675,0.946 0.136,0.135 z m -14.715,0 1.08,0.405 -0.54,-1.08 -0.675,-0.27 0.135,0.945 z m 2.7,-2.025 0.54,-0.27 0.27,-0.27 -0.675,0 -0.135,0.54 z m -56.427,-0.945 0.675,0 0.27,-0.405 -0.675,-0.135 -0.27,0.54 z m 15.524,-1.89 0.675,0.405 0.27,-0.54 -0.54,-0.54 -0.405,0.675 z m -2.7,-2.7 0.945,0.675 0.135,0.54 0.675,-0.675 -0.405,-0.405 -1.08,-0.945 -1.08,-0.405 0.81,1.215 z m 54.403,-3.375 -0.945,1.08 0.269,1.755 0.676,1.35 0.81,-0.27 0.54,-0.81 -1.215,-1.215 0.135,-1.35 0.269,-0.54 -0.269,-0.54 -0.27,0.54 z m -64.527,3.51 1.214,0.135 -0.27,-1.485 -1.349,0 0.405,1.35 z m 67.901,-2.7 0.405,0.945 1.08,-0.405 -0.674,-0.945 -0.811,0.405 z m -56.967,-1.62 0.135,0.675 0.675,-0.135 -0.27,-0.675 -0.54,0.135 z m -11.879,0.54 1.349,-0.27 -0.809,-0.54 -1.35,-0.135 0.81,0.945 z m 15.119,-2.43 -0.54,0.945 0.81,-0.27 0.405,-0.81 -0.675,0.135 z m 53.592,-0.81 -0.674,1.215 1.349,0 0.136,-1.619 -0.811,0.404 z m -59.397,0.405 0,0.675 0.675,-0.135 0,-0.81 -0.675,0.27 z m 43.333,-1.08 0.135,0.945 1.08,0.135 1.08,-0.27 1.08,-0.81 -0.405,-1.215 -0.81,0.27 -0.405,1.216 -0.404,0.27 -0.676,-0.676 -0.675,0.135 z m -40.228,-0.135 -0.405,0.676 1.215,0 0.405,-0.811 -1.215,0.135 z m 53.457,-0.945 0,1.215 0.54,-0.27 0.271,-1.08 -0.811,0.135 z m -66.282,-1.214 -0.54,1.079 -0.539,0.54 0.405,0.54 0.27,-0.81 0.944,-1.079 0,-0.946 -0.54,0.676 z m 14.31,-2.161 0.945,0.406 -0.54,1.619 0.675,0.945 0.675,-1.349 -0.405,-2.025 -1.215,-0.27 -0.135,0.674 z m 54.133,2.025 0.809,-0.134 0,-0.676 -0.944,0 0.135,0.81 z m -69.387,-2.295 -0.945,1.621 0.81,-0.271 1.485,-0.81 0.134,-1.214 -1.484,0.674 z m 54.672,1.215 1.216,0.27 -0.406,-0.945 -1.08,-0.27 0.27,0.945 z m 15.389,-2.834 -1.08,0.135 -0.809,1.214 -0.406,0.54 1.351,-0.54 1.35,-0.674 0.944,-0.405 -0.539,-0.946 -0.811,0.676 z m -70.601,0.405 -0.27,1.08 -0.54,0.134 0.54,0.136 0.81,-0.81 0.27,-1.08 -0.81,0.54 z m 12.824,0.54 0.945,0.27 -0.54,-1.215 -0.945,0 0.54,0.945 z m 54.673,-1.485 -0.271,1.349 1.215,-0.539 0.271,-1.08 -1.215,0.27 z m -9.855,1.08 0.135,-2.026 -1.485,-0.404 -1.35,1.35 0.135,0.945 0.811,-0.135 1.754,0.27 z m 12.285,-1.89 0.674,0.134 0.271,-0.944 -0.54,-0.135 -0.405,0.945 z m -66.148,-0.675 0.136,-0.27 0.674,-0.27 -0.674,-0.135 -0.136,0.675 z m -1.619,-0.405 -0.54,0.405 0.674,-0.27 0.271,-0.54 -0.405,0.405 z m 63.717,-5.13 0,4.59 1.215,-1.215 -0.27,-2.16 0.944,-1.35 0.271,-1.08 -0.675,-0.405 -1.485,1.62 z m -52.648,3.915 0.135,0.675 0.54,-0.27 0,-0.541 -0.675,0.136 z m 42.928,0.135 0.405,0 0,-0.405 -0.405,-0.27 0,0.675 z m 4.185,-2.7 -0.405,1.755 1.485,0.405 0,-1.62 1.08,-0.27 -0.406,-0.81 -1.754,0.54 z m 3.645,1.755 0.944,0.27 -0.134,-1.35 -1.08,0 0.27,1.08 z m 6.345,-3.105 -1.62,0.945 1.215,2.16 1.754,-0.675 0.27,-0.675 -0.539,-0.81 -0.676,-0.675 0,-0.405 -0.404,0.135 z m -62.233,2.43 0.405,0.405 0.675,-0.135 -0.27,-0.54 -0.81,0.27 z m 3.375,0.27 0.81,0 -0.135,-0.54 -0.675,-0.135 0,0.675 z m 2.43,-0.675 -0.135,0.54 0.675,0 0.27,-0.81 -0.81,0.27 z m -9.449,-0.27 0.809,0.54 0.405,0.135 -0.135,-0.54 -0.675,-0.405 -0.404,0.27 z m 5.804,-2.025 -0.27,0.81 0.81,-0.135 0.135,-0.81 -0.675,0.135 z m 3.375,72.087 0.945,-0.27 0.135,0.945 -0.27,0.54 -0.81,-1.215 z m -12.69,-0.676 -0.404,-0.674 0.944,-0.135 0.54,0.809 -1.08,0 z m -1.079,-3.239 0.54,-1.485 0.539,1.62 -1.079,-0.135 z m 15.254,-4.05 0,-0.675 0.81,0.135 -0.135,0.54 -0.675,0 z"
         style="fill:#7d2ced;fill-opacity:1;fill-rule:nonzero;stroke:none"
         id="path14"
         inkscape:connector-curvature="0" /></g></g></svg>