<svg xmlns="http://www.w3.org/2000/svg" viewBox="0 0 512 420.98"><defs><style>.cls-1{fill:#933ec5;}</style></defs><title>wave</title><g id="Слой_2" data-name="Слой 2"><g id="Capa_1" data-name="Capa 1"><path class="cls-1" d="M46.76,106.9c49.7-42.68,89-76.42,195.46-16.24,51.17,28.91,92.44,39.82,126.8,39.81,60.16,0,99.13-33.47,132.85-62.44a29.47,29.47,0,0,0,3.45-40.93,28,28,0,0,0-40.08-3.53C415.55,66.27,376.3,100,269.76,39.81,129-39.7,63.1,16.94,10.13,62.43a29.48,29.48,0,0,0-3.45,40.93A28,28,0,0,0,46.76,106.9Zm418.49,61.94c-49.69,42.68-88.95,76.42-195.49,16.23C129,105.56,63.1,162.19,10.13,207.69a29.47,29.47,0,0,0-3.45,40.92,28,28,0,0,0,40.08,3.54c49.7-42.68,89-76.42,195.46-16.24,51.17,28.91,92.44,39.82,126.8,39.82,60.16,0,99.13-33.47,132.85-62.44a29.47,29.47,0,0,0,3.45-40.93A28,28,0,0,0,465.24,168.84Zm0,145.24c-49.69,42.69-88.95,76.42-195.49,16.24C129,250.81,63.1,307.44,10.13,352.94a29.49,29.49,0,0,0-3.45,40.94,28,28,0,0,0,40.08,3.53c49.7-42.7,89-76.41,195.46-16.25C293.39,410.07,334.66,421,369,421c60.16,0,99.13-33.47,132.85-62.43a29.48,29.48,0,0,0,3.45-40.94A28,28,0,0,0,465.24,314.08Z"/></g></g></svg>